# xmcd
#
# Track frame offsets:
#	150
#	39806
#	66249
#	91986
#	138584
#
# Disc length: 2162 seconds
#
# Revision: 1
# Processed by: cddbd v1.5.2PL0 Copyright (c) Steve Scherf et al.
# Submitted via: audiograbber 1.83.01
#
DISCID=3c087005
DTITLE=Grateful Dead - 92-05-29 Sam Boyd Silver Bowl, Las Vegas NV
DYEAR=1900
DGENRE=
TTITLE0=Space
TTITLE1=All Along The Watchtower
TTITLE2=China Doll
TTITLE3=Sugar Magnolia
TTITLE4=The Weight
EXTD=
EXTT0=
EXTT1=
EXTT2=
EXTT3=
EXTT4=
PLAYORDER=
